<?xml version="1.0" encoding="UTF-8" standalone="no"?>
<svg
   data-bbox="0 0 81 55.33"
   viewBox="0 0 81 55.33"
   data-type="ugc"
   version="1.1"
   id="svg2"
   sodipodi:docname="b-cbrn.svg"
   inkscape:version="1.4.2 (2aeb623e1d, 2025-05-12)"
   xmlns:inkscape="http://www.inkscape.org/namespaces/inkscape"
   xmlns:sodipodi="http://sodipodi.sourceforge.net/DTD/sodipodi-0.dtd"
   xmlns="http://www.w3.org/2000/svg"
   xmlns:svg="http://www.w3.org/2000/svg">
  <defs
     id="defs2" />
  <sodipodi:namedview
     id="namedview2"
     pagecolor="#ffffff"
     bordercolor="#000000"
     borderopacity="0.25"
     inkscape:showpageshadow="2"
     inkscape:pageopacity="0.0"
     inkscape:pagecheckerboard="0"
     inkscape:deskcolor="#d1d1d1"
     showgrid="false"
     inkscape:zoom="7.0407872"
     inkscape:cx="37.637837"
     inkscape:cy="35.01029"
     inkscape:window-width="1854"
     inkscape:window-height="1011"
     inkscape:window-x="0"
     inkscape:window-y="0"
     inkscape:window-maximized="1"
     inkscape:current-layer="g8242" />
  <g
     id="g5875"
     transform="translate(-2301.2,-2399.6)">
			
			
		<g
   id="g8247"
   transform="translate(600.8,341.4)">
			<g
   id="g8244">
				<g
   id="g8243"
   style="display:inline">
					<g
   id="g8242">
						<g
   id="g8241">
							<g
   id="g8240">
								
								<g
   id="g8239">
									<path
   d="m 1778.4,2061.2 v 49.3 h -75 v -49.3 h 75 m 3,-3 h -3 -75 -3 v 3 49.3 3 h 3 75 3 v -3 -49.3 z"
   id="path8238" />

								</g>

							</g>

						</g>

					</g>

				</g>

			</g>

			<g
   id="g8246"
   transform="translate(4.4688976,13.980981)">
				<path
   id="path8244"
   class="st31"
   d="m 1727,2067.5 c 1.5,-1.8 0,-4.9 -3.3,-7.1 -3.4,-2.2 -7.3,-2.5 -8.8,-0.8 -1.5,1.8 0,4.9 3.3,7.1 3.4,2.2 7.3,2.6 8.8,0.8 z m -6.1,-8.4 c 12.8,5.1 25.9,26.3 25.9,26.3"
   style="fill:none;stroke:#000000;stroke-width:2;stroke-linecap:round;stroke-linejoin:round" />

				<path
   id="path8245"
   class="st31"
   d="m 1745.8,2067.3 c -1.5,-1.8 0,-4.9 3.3,-7.1 3.4,-2.2 7.3,-2.5 8.8,-0.8 1.5,1.8 0,4.9 -3.3,7.1 -3.3,2.2 -7.3,2.6 -8.8,0.8 z m 6.1,-8.4 c -12.8,5.1 -25.9,26.3 -25.9,26.3"
   style="fill:none;stroke:#000000;stroke-width:2;stroke-linecap:round;stroke-linejoin:round" />

				<path
   id="path8246"
   d="m 1726.5,2067.3 c -1,2 -4.4,1.5 -7.5,-0.1 -3,-1.6 -5.5,-5.1 -4.5,-7.1 1,-2 5.3,-1.8 8.3,-0.2 3,1.6 5.4,4.6 4.3,6.7 0,0 -0.2,0.4 -0.2,0.4 z" />

				<path
   id="path3828-1"
   d="m 1745.5,2067 c 1,2 5.4,2 8.4,0.4 3,-1.6 5.1,-5.3 4,-7.3 -1,-2 -4.8,-1.6 -7.8,-0.1 -3,1.6 -5.8,4 -4.8,6 0,0 -1,0.7 0.1,0.7 z" />

			</g>

		</g>
</g>
</svg>
