<?xml version="1.0" encoding="UTF-8" standalone="no"?>
<svg
   data-bbox="0 0 81 55.33"
   viewBox="0 0 81 55.33"
   data-type="ugc"
   version="1.1"
   id="svg2"
   sodipodi:docname="b-food.svg"
   inkscape:version="1.4.2 (2aeb623e1d, 2025-05-12)"
   xmlns:inkscape="http://www.inkscape.org/namespaces/inkscape"
   xmlns:sodipodi="http://sodipodi.sourceforge.net/DTD/sodipodi-0.dtd"
   xmlns="http://www.w3.org/2000/svg"
   xmlns:svg="http://www.w3.org/2000/svg">
  <defs
     id="defs2" />
  <sodipodi:namedview
     id="namedview2"
     pagecolor="#ffffff"
     bordercolor="#000000"
     borderopacity="0.25"
     inkscape:showpageshadow="2"
     inkscape:pageopacity="0.0"
     inkscape:pagecheckerboard="0"
     inkscape:deskcolor="#d1d1d1"
     showgrid="false"
     inkscape:zoom="7.0407872"
     inkscape:cx="37.637837"
     inkscape:cy="35.01029"
     inkscape:window-width="1854"
     inkscape:window-height="1011"
     inkscape:window-x="0"
     inkscape:window-y="0"
     inkscape:window-maximized="1"
     inkscape:current-layer="g5875" />
  <g
     id="g5875"
     transform="translate(-2301.2,-2399.6)">
			<g
   id="g5873">
				<g
   id="g5872"
   style="display:inline">
					<g
   id="g5871">
						<g
   id="g5870">
							<g
   id="g5869">
								
								<g
   id="g5868">
									<path
   d="m 2379.2,2402.6 v 49.3 h -75 v -49.3 h 75 m 3,-3 h -3 -75 -3 v 3 49.3 3 h 3 75 3 v -3 -49.3 z"
   id="path5867" />

								</g>

							</g>

						</g>

					</g>

				</g>

			</g>

			<g
   id="g5874">
				<path
   class="st4"
   d="m 2343.3,2427.3 7.4,7.4 c -1.9,1.9 -4.5,3.1 -7.4,3.1 -2.9,0 -5.5,-1.2 -7.4,-3.1 -1.9,-1.9 -3.1,-4.5 -3.1,-7.4 0,-2.9 1.2,-5.5 3.1,-7.4 1.9,-1.9 4.5,-3.1 7.4,-3.1 2.9,0 5.5,1.2 7.4,3.1 z"
   id="path5873"
   style="fill:none;stroke:#000000;stroke-width:2;stroke-miterlimit:10" />

				<path
   class="st47"
   d="m 2343.3,2427.3 7.4,7.4 c -1.9,1.9 -4.5,3.1 -7.4,3.1 -2.9,0 -5.5,-1.2 -7.4,-3.1 -1.9,-1.9 -3.1,-4.5 -3.1,-7.4 0,-2.9 1.2,-5.5 3.1,-7.4 1.9,-1.9 4.5,-3.1 7.4,-3.1 2.9,0 5.5,1.2 7.4,3.1 z"
   id="path5874"
   style="opacity:0.4;fill:#ffffff;stroke:#000000;stroke-width:2;stroke-miterlimit:10" />

			</g>

		</g>
</svg>
