<?xml version="1.0" encoding="UTF-8"?>
<svg data-bbox="0 0 81 55.33" viewBox="0 0 81 55.33" xmlns="http://www.w3.org/2000/svg" data-type="ugc">
    <g>
        <path d="M78 3v49.33H3V3h75m3-3H0v55.33h81V0Z"/>
        <path d="M43.44 35.93s5.14 12.89-2.9 12.89h-.08c-8.04 0-2.9-12.89-2.9-12.89" fill="none" stroke="#000000" stroke-linejoin="round"/>
        <path d="M44.4 36.6c1.94 3.55 5.18 14.43-3.81 14.43h-.2c-8.98 0-5.75-10.88-3.81-14.43l.5.79-1.16 7.25 1.07 2.7 3.22 1.97 2.15-.68 1.86-1.05.68-1.64.11-3.18-1.03-5.48.4-.68Z"/>
        <path d="m38.047 36.115-.75 1.876-3.203-1.28.75-1.876 3.203 1.28z"/>
        <path d="m43.716 37.99-.75-1.875 3.205-1.28.75 1.875-3.205 1.28z"/>
    </g>
</svg>
