<?xml version="1.0" encoding="UTF-8"?>
<svg data-bbox="0 0 81.03 55.46" viewBox="0 0 81.03 55.46" xmlns="http://www.w3.org/2000/svg" data-type="ugc">
    <g>
        <path d="M78 3.13v49.33H3V3.13h75m3-3H0v55.33h81V.13Z"/>
        <path fill="none" stroke="#000000" stroke-miterlimit="10" d="M78.04 15.15H3.01"/>
        <path d="M78.03 3v49.33h-75V3h75m3-3h-81v55.33h81V0Z"/>
        <path d="M45 24.01a4.47 4.47 0 1 1-8.94 0 4.47 4.47 0 0 1 8.94 0z"/>
        <path d="M57.9 24.01a4.47 4.47 0 1 1-8.94 0 4.47 4.47 0 0 1 8.94 0z"/>
        <path d="M32.1 24.01a4.47 4.47 0 1 1-8.94 0 4.47 4.47 0 0 1 8.94 0z"/>
    </g>
</svg>
