<?xml version="1.0" encoding="UTF-8"?>
<svg data-bbox="0 0 81 55.33" viewBox="0 0 81 55.33" xmlns="http://www.w3.org/2000/svg" data-type="shape">
    <g>
        <path d="M78 3v49.33H3V3h75m3-3H0v55.33h81V0Z"/>
        <path d="m40.5 3.94 11.86 10v.92L40.5 8.76l-11.86 6.1v-.92l11.86-10Z"/>
        <path d="M30.17 14.45a1.99 1.99 0 1 1-3.98 0 1.99 1.99 0 0 1 3.98 0z"/>
        <path d="M54.81 14.45a1.99 1.99 0 1 1-3.98 0 1.99 1.99 0 0 1 3.98 0z"/>
        <path d="M42.49 14.45a1.99 1.99 0 1 1-3.98 0 1.99 1.99 0 0 1 3.98 0z"/>
        <path d="m38.9 9.31 1.08 4.94h.54v-6.1L38.9 9.31z"/>
        <path d="m42.1 9.31-1.08 4.94h-.54v-6.1l1.62 1.16z"/>
    </g>
</svg>
