<?xml version="1.0" encoding="UTF-8"?>
<svg data-bbox="0 0 81 55.33" viewBox="0 0 81 55.33" xmlns="http://www.w3.org/2000/svg" data-type="shape">
    <g>
        <path d="M78 3v49.33H3V3h75m3-3H0v55.33h81V0Z"/>
        <path d="m40.5 18.66 16.29 13.75v1.26L40.5 25.29l-16.29 8.38v-1.26L40.5 18.66Z"/>
        <path d="M26.31 33.09a2.74 2.74 0 1 1-5.48 0 2.74 2.74 0 0 1 5.48 0z"/>
        <path d="M60.17 33.09a2.74 2.74 0 1 1-5.48 0 2.74 2.74 0 0 1 5.48 0z"/>
        <path d="M43.24 33.09a2.74 2.74 0 1 1-5.48 0 2.74 2.74 0 0 1 5.48 0z"/>
        <path d="m38.3 26.03 1.49 6.79h.74v-8.38l-2.23 1.59z"/>
        <path d="m42.7 26.03-1.49 6.79h-.74v-8.38l2.23 1.59z"/>
    </g>
</svg>
