<?xml version="1.0" encoding="UTF-8"?>
<svg data-bbox="0 0 81 55.33" viewBox="0 0 81 55.33" xmlns="http://www.w3.org/2000/svg" data-type="ugc">
    <g>
        <path d="M78 3v49.33H3V3h75m3-3H0v55.33h81V0Z"/>
        <path fill="#ffffff" d="M60.2 45.96c0 2.679-2.118 4.85-4.73 4.85-2.612 0-4.73-2.171-4.73-4.85s2.118-4.85 4.73-4.85c2.612 0 4.73 2.171 4.73 4.85z" opacity=".4"/>
        <path fill="none" stroke="#000000" stroke-miterlimit="10" stroke-width="2" d="M42.58 45.94h8.06"/>
        <path fill="none" stroke="#000000" stroke-miterlimit="10" stroke-width="2" d="M60.2 45.96c0 2.679-2.118 4.85-4.73 4.85-2.612 0-4.73-2.171-4.73-4.85s2.118-4.85 4.73-4.85c2.612 0 4.73 2.171 4.73 4.85z"/>
        <path fill="#ffffff" opacity=".4" d="M42.97 45.93v.2A3.87 3.87 0 0 1 39.1 50H24.68a3.87 3.87 0 0 1-3.87-3.87v-.2a3.87 3.87 0 0 1 3.87-3.87H39.1a3.87 3.87 0 0 1 3.87 3.87z"/>
        <path fill="none" stroke="#000000" stroke-miterlimit="10" stroke-width="2" d="M42.97 45.93v.2A3.87 3.87 0 0 1 39.1 50H24.68a3.87 3.87 0 0 1-3.87-3.87v-.2a3.87 3.87 0 0 1 3.87-3.87H39.1a3.87 3.87 0 0 1 3.87 3.87z"/>
    </g>
</svg>
