<?xml version="1.0" encoding="UTF-8"?>
<svg data-bbox="0 0 81 55.33" viewBox="0 0 81 55.33" xmlns="http://www.w3.org/2000/svg" data-type="ugc">
    <g>
        <path d="M78 3v49.33H3V3h75m3-3H0v55.33h81V0Z"/>
        <path fill="#ffffff" opacity=".4" d="M54.08 45.87c0 2.679-2.118 4.85-4.73 4.85-2.612 0-4.73-2.171-4.73-4.85s2.118-4.85 4.73-4.85c2.612 0 4.73 2.171 4.73 4.85z"/>
        <path fill="#ffffff" opacity=".4" d="M36.38 45.87c0 2.679-2.118 4.85-4.73 4.85-2.612 0-4.73-2.171-4.73-4.85s2.118-4.85 4.73-4.85c2.612 0 4.73 2.171 4.73 4.85z"/>
        <path fill="none" stroke="#000000" stroke-miterlimit="10" stroke-width="2" d="M36.47 45.85h8.06"/>
        <path fill="none" stroke="#000000" stroke-miterlimit="10" stroke-width="2" d="M54.08 45.87c0 2.679-2.118 4.85-4.73 4.85-2.612 0-4.73-2.171-4.73-4.85s2.118-4.85 4.73-4.85c2.612 0 4.73 2.171 4.73 4.85z"/>
        <path fill="none" stroke="#000000" stroke-miterlimit="10" stroke-width="2" d="M36.38 45.87c0 2.679-2.118 4.85-4.73 4.85-2.612 0-4.73-2.171-4.73-4.85s2.118-4.85 4.73-4.85c2.612 0 4.73 2.171 4.73 4.85z"/>
    </g>
</svg>
