<?xml version="1.0" encoding="UTF-8"?>
<svg data-bbox="0 0 81 55.33" viewBox="0 0 81 55.33" xmlns="http://www.w3.org/2000/svg" data-type="ugc">
    <g>
        <path d="M78 3v49.33H3V3h75m3-3H0v55.33h81V0Z"/>
        <g opacity=".4">
            <path fill="#ffffff" d="M44.72 46.03c0 2.391-1.89 4.33-4.22 4.33s-4.22-1.939-4.22-4.33 1.89-4.33 4.22-4.33 4.22 1.939 4.22 4.33z"/>
            <path fill="#ffffff" d="M57.04 46.03c0 2.391-1.89 4.33-4.22 4.33s-4.22-1.939-4.22-4.33 1.89-4.33 4.22-4.33 4.22 1.939 4.22 4.33z"/>
            <path fill="#ffffff" d="M32.43 46.03c0 2.391-1.89 4.33-4.22 4.33s-4.22-1.939-4.22-4.33 1.89-4.33 4.22-4.33 4.22 1.939 4.22 4.33z"/>
        </g>
        <path fill="none" stroke="#000000" stroke-miterlimit="10" stroke-width="2" d="M44.72 46.03c0 2.391-1.89 4.33-4.22 4.33s-4.22-1.939-4.22-4.33 1.89-4.33 4.22-4.33 4.22 1.939 4.22 4.33z"/>
        <path fill="none" stroke="#000000" stroke-miterlimit="10" stroke-width="2" d="M57.04 46.03c0 2.391-1.89 4.33-4.22 4.33s-4.22-1.939-4.22-4.33 1.89-4.33 4.22-4.33 4.22 1.939 4.22 4.33z"/>
        <path fill="none" stroke="#000000" stroke-miterlimit="10" stroke-width="2" d="M32.43 46.03c0 2.391-1.89 4.33-4.22 4.33s-4.22-1.939-4.22-4.33 1.89-4.33 4.22-4.33 4.22 1.939 4.22 4.33z"/>
    </g>
</svg>
