<?xml version="1.0" encoding="UTF-8"?>
<svg data-bbox="0 0 81 55.33" viewBox="0 0 81 55.33" xmlns="http://www.w3.org/2000/svg" data-type="ugc">
    <g>
        <defs>
            <clipPath id="2604fbba-d145-4ab5-9866-e7c156def23e">
                <path d="M78 3v49.33H3V3h75z"/>
            </clipPath>
        </defs>
        <g clip-path="url(#2604fbba-d145-4ab5-9866-e7c156def23e)">
            <path d="M79.43 53.77H1.57v-2.23c4.68 0 4.93-8 9.61-8.08 4.68 0 4.93 8.08 9.61 8.08s4.93-8.08 9.61-8.08 4.93 8.08 9.61 8.08 4.93-8.08 9.61-8.08 4.93 8.08 9.61 8.08 4.93-8 9.61-8.08h.01c4.68 0 4.93 8.08 9.61 8.08l1.01 2.23Z" fill="#ffffff" opacity=".4"/>
            <path d="M1.57 51.54c4.68 0 4.93-8 9.61-8.08 4.68 0 4.93 8.08 9.61 8.08s4.93-8.08 9.61-8.08 4.93 8.08 9.61 8.08 4.93-8.08 9.61-8.08 4.93 8.08 9.61 8.08 4.93-8 9.61-8.08h.01c4.68 0 4.93 8.08 9.61 8.08" fill="none" stroke="#000000" stroke-width="2"/>
        </g>
        <path d="M78 3v49.33H3V3h75m3-3H0v55.33h81V0Z"/>
    </g>
</svg>
