<?xml version="1.0" encoding="UTF-8"?>
<svg data-bbox="0 0 81 55.33" viewBox="0 0 81 55.33" xmlns="http://www.w3.org/2000/svg" data-type="ugc">
    <g>
        <path d="M78 3v49.33H3V3h75m3-3H0v55.33h81V0Z"/>
        <path fill="#ffffff" opacity=".4" d="M29.42 9.78v-.2a3.87 3.87 0 0 1 3.87-3.87h14.42a3.87 3.87 0 0 1 3.87 3.87v.2a3.87 3.87 0 0 1-3.87 3.87H33.29a3.87 3.87 0 0 1-3.87-3.87z"/>
        <path fill="none" stroke="#000000" stroke-miterlimit="10" stroke-width="2" d="M29.42 9.78v-.2a3.87 3.87 0 0 1 3.87-3.87h14.42a3.87 3.87 0 0 1 3.87 3.87v.2a3.87 3.87 0 0 1-3.87 3.87H33.29a3.87 3.87 0 0 1-3.87-3.87z"/>
    </g>
</svg>
