<?xml version="1.0" encoding="UTF-8"?>
<svg data-bbox="0 0 80.05 54.68" viewBox="0 0 80.05 54.68" xmlns="http://www.w3.org/2000/svg" data-type="ugc">
    <g style="isolation:isolate">
        <path d="M77.09 2.96v48.76H2.96V2.96h74.13M80.05 0H0v54.68h80.05V0Z"/>
        <path fill="none" stroke="#000000" stroke-miterlimit="10" stroke-width="1.98" d="m2.37 52.11 18.69-12.3 5.78-3.8"/>
        <path fill="none" stroke="#000000" stroke-miterlimit="10" stroke-width="1.98" d="m54.52 17.81 4.47-2.93L77.24 2.86"/>
        <path fill="none" stroke="#000000" stroke-miterlimit="10" stroke-width="1.98" d="m52.85 35.78 6.14 4.03 18.25 12"/>
        <path fill="none" stroke="#000000" stroke-miterlimit="10" stroke-width="1.98" d="m2.24 2.49 18.61 12.24 4.34 2.85"/>
        <path fill="#ffffff" d="M49.28 23.15c.15-1.82.68-3.49 1.61-5.02l-3.57-3.57c-1.13.97-2.41 1.51-3.86 1.6-1.33.12-2.59-.13-3.78-.76-1.22.61-2.48.86-3.79.76-1.36-.12-2.58-.6-3.68-1.45l-3.58 3.57c.88 1.55 1.37 3.18 1.47 4.87.05.78-.18 1.86-.68 3.25-.26.77-.46 1.44-.59 2-.13.55-.2 1.01-.23 1.34-.02 1.48.4 2.82 1.25 4.01.67.87 1.76 1.83 3.29 2.87 1.67.85 2.96 1.4 3.86 1.64l.75.35c.24.11.49.22.75.34.57.34.97.71 1.18 1.09.26-.41.67-.77 1.21-1.09.38-.17.71-.31.97-.44l.57-.25c.19-.1.45-.21.75-.33.31-.12.69-.27 1.15-.44.88-.31 1.52-.61 1.93-.87 1.48-1.05 2.56-1.99 3.25-2.83.88-1.19 1.31-2.54 1.29-4.05-.05-.68-.34-1.76-.86-3.23-.5-1.44-.71-2.55-.64-3.35Z" opacity=".4"/>
        <path d="M49.28 23.15c.15-1.82.68-3.49 1.61-5.02l-3.57-3.57c-1.13.97-2.41 1.51-3.86 1.6-1.33.12-2.59-.13-3.78-.76-1.22.61-2.48.86-3.79.76-1.36-.12-2.58-.6-3.68-1.45l-3.58 3.57c.88 1.55 1.37 3.18 1.47 4.87.05.78-.18 1.86-.68 3.25-.26.77-.46 1.44-.59 2-.13.55-.2 1.01-.23 1.34-.02 1.48.4 2.82 1.25 4.01.67.87 1.76 1.83 3.29 2.87 1.67.85 2.96 1.4 3.86 1.64l.75.35c.24.11.49.22.75.34.57.34.97.71 1.18 1.09.26-.41.67-.77 1.21-1.09.38-.17.71-.31.97-.44l.57-.25c.19-.1.45-.21.75-.33.31-.12.69-.27 1.15-.44.88-.31 1.52-.61 1.93-.87 1.48-1.05 2.56-1.99 3.25-2.83.88-1.19 1.31-2.54 1.29-4.05-.05-.68-.34-1.76-.86-3.23-.5-1.44-.71-2.55-.64-3.35h0Z" fill="none" stroke="#000000" stroke-linecap="round" stroke-linejoin="round" stroke-width="1.98"/>
    </g>
</svg>
