<?xml version="1.0" encoding="UTF-8" standalone="no"?>
<!-- Created with Inkscape (http://www.inkscape.org/) -->

<svg
   xmlns:dc="http://purl.org/dc/elements/1.1/"
   xmlns:cc="http://creativecommons.org/ns#"
   xmlns:rdf="http://www.w3.org/1999/02/22-rdf-syntax-ns#"
   xmlns:svg="http://www.w3.org/2000/svg"
   xmlns="http://www.w3.org/2000/svg"
   xmlns:sodipodi="http://sodipodi.sourceforge.net/DTD/sodipodi-0.dtd"
   xmlns:inkscape="http://www.inkscape.org/namespaces/inkscape"
   version="1.1"
   id="svg32"
   xml:space="preserve"
   width="466.66666"
   height="200"
   viewBox="0 0 466.66666 200"
   sodipodi:docname="RPD.svg"
   inkscape:version="0.92.1 r15371"><metadata
     id="metadata38"><rdf:RDF><cc:Work
         rdf:about=""><dc:format>image/svg+xml</dc:format><dc:type
           rdf:resource="http://purl.org/dc/dcmitype/StillImage" /><dc:title></dc:title></cc:Work></rdf:RDF></metadata><defs
     id="defs36"><clipPath
       clipPathUnits="userSpaceOnUse"
       id="clipPath48"><path
         d="M 0,150 H 350 V 0 H 0 Z"
         id="path46"
         inkscape:connector-curvature="0" /></clipPath></defs><sodipodi:namedview
     pagecolor="#ffffff"
     bordercolor="#666666"
     borderopacity="1"
     objecttolerance="10"
     gridtolerance="10"
     guidetolerance="10"
     inkscape:pageopacity="0"
     inkscape:pageshadow="2"
     inkscape:window-width="667"
     inkscape:window-height="480"
     id="namedview34"
     showgrid="false"
     inkscape:zoom="0.67285716"
     inkscape:cx="233.33333"
     inkscape:cy="100"
     inkscape:window-x="0"
     inkscape:window-y="0"
     inkscape:window-maximized="0"
     inkscape:current-layer="g40" /><g
     id="g40"
     inkscape:groupmode="layer"
     inkscape:label="RPD"
     transform="matrix(1.3333333,0,0,-1.3333333,0,200)"><g
       id="g42"><g
         id="g44"
         clip-path="url(#clipPath48)"><g
           id="g50"
           transform="translate(231.7266,81.8535)"><path
             d="m 0,0 c 0,0 -6.945,-1.286 -8.639,3.948 0,0 -0.959,2.393 -0.998,3.025 -0.041,0.631 0.218,2.499 2.018,2.401 L 0.137,9.273 c 0,0 2.894,-3.743 -1.551,-6.36 0,0 -0.597,-0.374 0.074,-0.263 0,0 4.19,1.176 3.67,5.623 0,0 -0.174,0.571 0.303,1.005 0,0 0.237,0.032 0.336,-0.073 0,0 0.969,-0.285 1.107,-1.304 0,0 0.08,-0.34 0.369,-0.603 C 4.445,7.298 4.759,1.386 0,0 m -105.012,19.566 -19.567,0.069 c 0,0 -0.08,0.052 -0.066,0.232 l -0.013,0.732 c 0,0 0.003,0.188 0.201,0.131 l 19.235,0.029 c 0,0 0.421,-0.062 0.409,-0.339 l 0.013,-0.589 c 0,0 0.032,-0.298 -0.212,-0.265 m -27.126,-0.028 c 0,0 0.011,-0.112 -0.116,-0.078 l -2.568,0.064 c 0,0 -0.112,0.417 -0.561,0.464 l -6.143,0.329 c 0,0 -0.321,-0.033 -0.247,0.287 0,0 -0.013,0.458 0.263,0.381 l 9.32,0.002 c 0,0 0.278,-0.031 0.254,-0.238 z m -69.225,7.424 -0.551,0.015 c 0,0 -0.139,0.015 -0.114,0.169 0.026,0.151 0.024,0.9 0.024,0.9 0,0 -0.029,0.231 0.303,0.259 l -0.003,0.796 c 0,0 0.218,0.106 0.544,0.095 0,0 0.603,0.087 0.537,-0.29 0,0 -0.106,-0.313 0.157,-0.367 0,0 0.279,-0.205 0.091,-0.521 0,0 0.11,-1.025 -0.988,-1.056 m -0.046,4.236 c 0.188,0.055 0.653,-0.019 0.653,-0.019 0,0 0.334,-0.039 0.244,-0.458 0,0 -0.227,-0.374 -0.547,0.025 0,0 -0.009,0.2 -0.173,0.182 l -0.232,0.126 c 0,0 -0.133,0.087 0.055,0.144 M 97.97,6.661 l 0.323,4.948 c 0.015,0.489 -0.195,1.05 -0.195,1.05 0.817,4.095 -1.744,4.224 -1.744,4.224 -0.399,0.249 -1.267,0.39 -1.267,0.39 L 40.972,19.827 C 40.584,20.011 39.965,19.79 39.965,19.79 l -13.237,3.035 c -5.485,0.775 -5.022,8.338 -5.022,8.338 0.021,0.175 -0.38,0.434 -0.694,0.272 -0.317,-0.163 -0.323,0.142 -0.323,0.142 l -0.031,0.24 c 0.015,0.225 -0.23,0.249 -0.23,0.249 -5.5,0.337 -12.354,0.211 -12.354,0.211 -0.291,0.021 -0.262,0.186 -0.262,0.186 -0.345,0.755 -1.726,0.702 -1.726,0.702 L 6.182,32.662 5.98,32.402 C 5.9,32.296 5.807,32.352 5.807,32.352 l -0.13,0.782 C 4.328,33.071 4.295,32.435 4.295,32.435 l 0.041,-0.267 c 0.049,-0.242 -0.114,-0.262 -0.114,-0.262 0,0 -0.439,-0.009 -0.644,-0.015 C 3.375,31.886 3.326,31.558 3.326,31.558 l -26.221,0.213 c -1.167,-0.095 -2.242,0.081 -2.93,1.286 -0.689,1.206 -1.379,1.269 -1.379,1.269 l -1.709,0.071 c -0.072,0.079 0.036,0.131 0.036,0.131 0,0 0.535,0.018 0.67,0.749 0.133,0.73 0.074,1.726 0.074,1.726 0.004,0.111 -0.068,0.147 -0.068,0.147 l -1.089,0.077 -0.112,0.669 -0.368,-0.05 c -0.019,0.135 -0.169,0.28 -0.169,0.28 l 0.543,0.764 -0.561,0.093 -0.601,-0.571 c -1.404,0.33 -1.753,-0.623 -1.753,-0.623 l -0.727,-0.007 c 0,0 -0.422,1.009 -1.661,0.973 -1.24,-0.036 -1.608,-1.338 -1.608,-1.338 L -46.604,36.93 c 0,0 -0.107,0.953 -1.067,0.885 -0.962,-0.068 -1.132,-0.797 -1.132,-0.797 l -1.32,-0.091 C -50.285,36.898 -50.297,36.8 -50.297,36.8 l -0.111,-1.503 -1.645,0.044 c -0.328,0.028 -0.273,-0.16 -0.273,-0.16 l -0.088,-0.572 c -0.079,-0.212 -0.227,-0.096 -0.227,-0.096 -1.459,0.979 -3.398,0.252 -3.398,0.252 -0.442,-0.12 -0.282,-0.647 -0.282,-0.647 l -0.49,-0.124 -0.197,-0.461 -4.295,-0.047 c -0.697,-0.156 -0.28,-0.778 -0.28,-0.778 -0.167,-0.266 -0.035,-0.534 -0.035,-0.534 l 0.783,-0.757 c -0.278,-0.125 -0.426,-1.32 -0.426,-1.32 -0.248,-0.121 -0.471,-0.003 -0.471,-0.003 -0.184,0.438 -2.919,0.27 -2.919,0.27 0.022,2.405 -1.972,3.628 -3.571,3.391 -1.6,-0.236 -2.542,-1.009 -3.5,-1.695 -0.957,-0.685 -3.924,-0.98 -3.924,-0.98 -2.113,-0.236 -4.836,-0.033 -6.631,-0.542 -2.319,-0.864 -1.86,-0.946 -5.452,-1.245 -3.594,-0.299 -5.68,2.797 -5.68,2.797 -1.821,2.231 -3.955,1.926 -3.955,1.926 0,0 -1.826,-0.16 -2.305,-1.52 -0.479,-1.361 -0.439,-3.535 -0.444,-3.76 -0.007,-0.225 -0.153,-0.258 -0.153,-0.258 l -3.639,0.026 c -0.728,-0.025 -0.946,-0.693 -0.946,-0.693 -0.061,-0.263 0.019,-0.905 0.019,-0.905 0.008,-0.151 -0.179,-0.133 -0.179,-0.133 l -19.447,0.068 c -0.312,0.689 -2.274,1.217 -2.274,1.217 -0.146,0.179 -0.452,0.11 -0.452,0.11 l -3.387,-0.004 c -0.254,0.008 -0.419,-0.127 -0.419,-0.127 l -0.448,-0.346 c -0.155,-0.02 -0.172,-0.273 -0.172,-0.273 0,0 -0.01,-0.419 0.008,-0.651 0.019,-0.233 -0.175,-0.197 -0.175,-0.197 l -9.811,0.053 c -0.578,0.871 -1.627,0.952 -1.627,0.952 -0.431,0.281 -0.822,0.219 -0.822,0.219 -0.277,-0.064 -1.152,-0.012 -1.152,-0.012 -0.551,0.016 -0.517,-0.305 -0.517,-0.305 l -2.029,0.11 c -3.608,0.887 -3.369,-0.947 -3.346,-1.053 0.023,-0.106 -0.112,-0.145 -0.112,-0.145 l -34.997,-0.413 c -0.106,0.43 -1.24,0.306 -1.24,0.306 -0.304,0.561 -1.197,0.328 -1.197,0.328 l -4.328,0.001 c -1.22,-0.691 -2.668,-0.379 -2.668,-0.379 l -0.899,0.303 c -0.147,0.175 -0.837,0.09 -0.837,0.09 -0.254,0.042 -0.208,0.202 -0.208,0.202 l 0.051,1.77 c 0.208,-0.004 0.399,0.125 0.399,0.125 0,0 0.476,0.212 0.402,1.4 -0.072,1.188 -0.687,1.295 -0.687,1.295 -0.035,0.048 0.019,0.103 0.019,0.103 0.159,0.221 -0.271,0.316 -0.271,0.316 -0.09,0.057 -0.027,0.106 -0.027,0.106 0,0 0.444,0.274 0.034,0.512 -1.022,0.425 -0.963,1.699 -0.425,2.899 0.538,1.198 0.355,3.124 0.052,3.751 -0.304,0.626 -1.664,0.382 -1.664,0.382 -0.181,-0.025 -0.181,0.017 -0.272,0.058 -0.09,0.041 -0.055,0.078 -0.066,0.273 -0.012,0.195 -0.302,0.202 -0.302,0.202 l -2.134,-0.004 c -0.722,-0.039 -0.963,-0.462 -0.963,-0.462 -1.054,-1.994 -0.077,-3.919 -0.093,-4.605 0.364,-1.585 -0.878,-1.998 -0.878,-1.998 -0.183,0.025 -0.177,-0.202 -0.177,-0.202 l 0.033,-0.302 c 0.061,-0.149 -0.212,-0.174 -0.212,-0.174 -0.115,0.006 -0.153,-0.099 -0.153,-0.099 l 0.045,-0.98 c -1.165,-1.11 -0.17,-2.635 -0.17,-2.635 0.085,-0.035 0.06,-0.169 0.06,-0.169 l -0.045,-1.751 c -0.01,-0.134 -0.068,-0.179 -0.068,-0.179 l -1.888,-0.06 c 0,0 -1.041,-0.988 -1.07,-2.725 0.209,-2.653 1.355,-3.028 1.355,-3.028 l 6.84,-0.097 c 0.366,-0.035 0.295,-0.3 0.295,-0.3 l 0.65,-3.335 c -0.085,-0.639 0.294,-1.792 0.294,-1.792 0.087,-0.098 0.052,-0.305 -0.015,-0.508 l 0.028,0.004 -0.83,-3.851 c -0.142,-0.148 0.013,-0.31 0.013,-0.31 0.374,-0.174 0.18,-0.761 0.18,-0.761 l -4.846,-64.866 c -0.068,-0.146 -0.158,-0.123 -0.158,-0.123 -1.01,0.119 -0.912,0.187 -0.912,0.187 l -1.907,0.397 c -1.15,0.206 -1.42,-0.47 -1.437,-0.635 -0.016,-0.165 -0.126,-0.063 -0.126,-0.063 0,0 -0.158,0.057 -0.239,0.131 -0.081,0.071 -0.204,-0.019 -0.204,-0.019 l -0.268,-0.375 c 0,0 -0.122,-0.228 0.022,-0.474 0.145,-0.247 0.534,-0.397 0.534,-0.397 0.18,-0.77 1.578,-1.428 1.578,-1.428 0.002,-0.269 0.157,-0.336 0.157,-0.336 7.401,-1.96 9.66,-0.01 9.66,-0.01 l 0.308,0.488 c 2.145,0.797 1.718,2.137 1.718,2.137 l 0.339,0.383 c 0.247,0.381 -0.281,0.475 -0.281,0.475 l -4.833,-0.853 c -0.587,0.033 0.095,0.533 0.095,0.533 l 4.068,63.101 c 0.258,0.422 0.55,0.163 0.55,0.163 0.637,-0.413 1.892,-0.052 1.892,-0.052 l 5.747,-47.79 c 0.024,-0.133 -0.034,-0.157 -0.034,-0.157 l -0.396,-2.273 c -0.085,-0.192 0,0 0,0 l -3.318,0.514 c -0.426,0.125 -0.689,-0.429 -0.689,-0.429 l -0.13,-0.017 c -0.316,-0.098 -0.113,-0.416 -0.113,-0.416 l 0.241,-0.159 c -0.042,-0.102 0.064,-0.277 0.064,-0.277 0.514,-0.615 1.22,-0.803 1.22,-0.803 l 0.071,-0.211 c 0.3,-0.185 0.874,-0.189 0.874,-0.189 l 0.508,-1.517 c 0,0 0.564,-0.645 1.299,-0.444 0.737,0.192 1.448,0.686 1.448,0.686 0.124,-0.15 0.786,-0.331 0.786,-0.331 1.348,0.149 1.205,0.727 1.205,0.727 -0.054,0.386 -0.229,0.746 -0.229,0.746 0.963,-0.023 2.57,0.486 2.57,0.486 l 0.234,0.343 c 1.432,0.772 1.08,1.593 1.08,1.593 l 0.088,0.137 c 0.239,0.302 -0.151,0.367 -0.151,0.367 -1.085,-0.161 -2.596,-0.631 -2.596,-0.631 -0.229,0.156 -0.257,0.621 -0.257,0.621 0.37,0.304 -0.544,0.291 -0.544,0.291 l -0.199,1.622 -5.232,48.595 0.37,0.349 -0.464,5.7 c 0.206,0.103 0.224,0.422 0.224,0.422 l -0.287,0.496 0.289,0.051 c 0.066,0.142 0.045,0.271 0.045,0.271 l 0.04,4.002 c 0.002,0.157 0.154,0.154 0.154,0.154 l 1.611,-0.06 c 0.369,0.004 0.56,0.468 0.56,0.468 l 0.765,-0.027 c 0.305,-0.068 0.542,0.258 0.542,0.258 l 34.757,-0.172 c 0.368,0.038 0.297,-0.267 0.297,-0.267 l -0.129,-4.095 c 0.46,-4.335 4.362,-4.101 4.362,-4.101 0.931,-0.458 2.377,-0.082 2.377,-0.082 0.356,0.177 2.054,0.287 2.054,0.287 0.329,-0.01 0.484,0.442 0.484,0.442 l 6.577,0.271 c 0.283,-0.011 0.394,0.305 0.394,0.305 l 2.775,-0.05 c 0.226,-1.411 0.694,-2.126 0.694,-2.126 0.379,-0.731 1.526,-0.514 1.526,-0.514 0.795,0.315 0.864,1.862 0.864,1.862 0.008,0.13 0.228,0.131 0.228,0.131 l 3.587,-0.006 c 0.432,0.137 0.48,0.814 0.48,0.814 l 20.167,-0.029 c 0.148,-0.324 0.359,-0.355 0.359,-0.355 l 3.81,0.019 c 0,0 -0.292,-2.483 0.937,-4.066 1.229,-1.584 3.451,-1.132 3.451,-1.132 1.304,0.147 3.465,1.784 3.465,1.784 1.34,1.104 3.602,1.012 3.602,1.012 l 11.286,-0.158 c 3.023,-0.047 4.99,-1.075 4.99,-1.075 2.619,-1.725 2.973,-1.978 4.329,-2.255 3.143,-0.367 3.401,2.079 3.401,2.079 l 0.008,1.622 1.607,-0.04 0.041,-0.115 5.903,0.009 0.146,-1.096 0.366,-0.214 0.025,-0.986 c -0.064,-0.673 0.87,-0.416 0.87,-0.416 0.305,0.038 1.576,-0.141 1.576,-0.141 0.094,-0.005 0.094,0.052 0.094,0.052 l -0.055,2.675 c -0.01,0.075 0.082,0.056 0.082,0.056 l 0.119,-0.051 c 0.088,-0.033 0.085,-0.14 0.085,-0.14 l 0.066,-2.857 c -0.368,-0.733 -0.473,-0.094 -0.473,-0.094 -0.113,0.146 -0.42,-0.018 -0.42,-0.018 -0.221,-0.658 0.016,-2.105 0.016,-2.105 -0.113,-0.267 -0.168,0.005 -0.168,0.005 0.031,0.214 -0.03,0.4 -0.03,0.4 -0.054,0.082 -0.332,0.018 -0.332,0.018 -0.242,-0.008 -0.258,-0.185 -0.258,-0.185 l 0.061,-0.86 c -0.168,-0.071 -0.243,-0.226 -0.243,-0.226 -0.514,-0.713 -0.101,-4.909 -0.101,-4.909 -0.165,-0.219 -0.252,-0.676 -0.252,-0.676 -0.368,-0.93 0.046,-8.297 0.046,-8.297 -0.565,-0.533 -0.517,-0.982 -0.517,-0.982 0,0 -0.152,-4.423 -0.068,-6.394 0.084,-1.969 0.811,-2.456 0.811,-2.456 l 0.114,-4.009 c -1.025,-0.78 0.053,-2.064 0.053,-2.064 -0.114,-6.938 0.804,-18.927 0.804,-18.927 0.013,-0.269 0.298,-0.339 0.298,-0.339 0.885,-0.163 2.351,0.023 2.351,0.023 0.095,-0.051 0.252,0.266 0.252,0.266 l 1.063,-0.051 c 1.522,-0.739 1.946,-0.005 1.946,-0.005 l 6.949,0.079 c 1.146,-0.921 2.287,-0.077 2.287,-0.077 l 1.924,-0.049 c 0.034,-0.131 0.185,-0.161 0.185,-0.161 l 2.032,-0.143 c 0.433,0.035 0.656,0.647 0.656,0.647 0.084,1.208 0.159,2.412 0.224,3.611 l 0.471,0.017 c 0.272,-0.021 0.268,0.235 0.268,0.235 0.061,0.121 -0.007,1.271 -0.007,1.271 0.591,0.559 0.046,1.758 0.046,1.758 0.171,1.611 0.08,3.85 0.08,3.85 0.677,0.825 -0.102,1.914 -0.102,1.914 -0.007,0.303 -0.099,0.566 -0.099,0.566 l -0.345,0.008 c 0.104,8.46 -0.22,16.209 -0.603,22.131 0.411,0.056 1.301,0.237 1.804,0.796 0.669,0.74 0.163,1.699 0.163,1.699 l -1.164,1.907 C -35.063,-3.805 -35.064,-4.4 -35.064,-4.4 l 0.933,-1.498 c 0.42,-1.164 -0.658,-1.11 -1.093,-1.046 -0.434,6.327 -0.911,10.276 -0.911,10.276 0.823,0.172 0.975,-0.424 0.975,-0.424 l 0.238,-2.907 c 0,0 0.151,-0.945 1.574,-0.908 0.807,0.25 0.836,1.121 0.836,1.121 l -0.273,4.472 c -0.024,0.243 -0.715,0.756 -0.715,0.756 -0.096,0.199 -0.147,0.779 -0.002,1.499 0.086,0.206 -0.027,0.979 -0.088,1.25 -0.057,0.271 -0.732,0.148 -0.732,0.148 l -0.108,2.769 c -0.006,0.113 0.137,0.104 0.137,0.104 l 16.522,-0.11 0.08,-1.309 C -17.656,9.192 -16.93,9.26 -16.93,9.26 l 3.885,0.038 c 1.25,0.09 1.65,-1.319 1.65,-1.319 1.771,-5.217 2.018,-5.631 2.975,-6.758 0.957,-1.127 2.955,-2.223 6.931,-2.191 3.973,0.032 5.29,2.162 5.29,2.162 C 3.969,1.354 4.025,1.244 4.025,1.244 4.051,0.609 4.2,0.538 4.2,0.538 c 2.38,-1.2 2.734,-3.204 2.734,-3.204 l 2.232,-10.313 c 0.391,-1.751 -0.581,-3.597 -0.581,-3.597 0,0 -0.599,-0.91 -0.112,-2.206 1.069,-2.016 2.519,-1.973 2.519,-1.973 l 10.07,2.095 c 2.461,0.434 1.75,2.912 1.75,2.912 L 17.525,8.034 c -0.355,1.092 0.084,1.129 0.084,1.129 l 0.877,0.195 18.348,-4.099 c 0.204,0.228 0.4,0.133 0.4,0.133 8.508,-2.046 9.157,-2.691 13.696,-4.991 4.539,-2.299 7.761,-6.106 9.367,-11.93 1.603,-5.826 5.178,-5.924 5.178,-5.924 l 22.273,-1.761 c 0.115,-0.23 -0.285,-0.42 -0.285,-0.42 -0.113,-0.041 0.027,-0.151 0.027,-0.151 0.248,-0.034 0.691,-0.418 0.691,-0.418 0.816,0.059 2.147,-0.207 2.147,-0.207 0.129,0.175 0.52,0.281 0.668,0.293 0.152,0.012 0.069,0.217 0.069,0.217 l -0.346,0.451 3.492,-0.277 c 2.571,-0.368 2.98,1.71 2.98,1.71 0.36,1.145 0.126,4.885 0.126,4.885 0.16,0.135 0.154,0.68 0.154,0.68 l 0.162,14.416 c 0.031,0.691 -0.209,1.53 -0.209,1.53 l 0.146,2.041 c 0.389,0.797 0.4,1.125 0.4,1.125"
             style="fill:#231f20;fill-opacity:1;fill-rule:nonzero;stroke:none"
             id="path52"
             inkscape:connector-curvature="0" /></g></g></g></g></svg>